<?xml version="1.0" encoding="utf-8"?>
<!-- Generator: Adobe Illustrator 23.0.4, SVG Export Plug-In . SVG Version: 6.00 Build 0)  -->
<svg version="1.1" id="_xE80C_" xmlns="http://www.w3.org/2000/svg" xmlns:xlink="http://www.w3.org/1999/xlink" x="0px" y="0px"
	 viewBox="0 0 24 24" style="enable-background:new 0 0 24 24;" xml:space="preserve">
<style type="text/css">
	.st0{fill:#fc0;}
</style>
<g>
	<path class="st0" d="M18.48,12.04c0,0.18-0.06,0.33-0.19,0.46l-9.92,9.92c-0.13,0.13-0.28,0.19-0.46,0.19s-0.34-0.06-0.49-0.19
		l-1.06-1.06c-0.15-0.15-0.23-0.32-0.23-0.49c0-0.18,0.08-0.34,0.23-0.49l8.32-8.32L6.36,3.68C6.21,3.56,6.13,3.4,6.13,3.23
		c0-0.18,0.08-0.34,0.23-0.49l1.06-1.06c0.13-0.15,0.29-0.23,0.49-0.23s0.35,0.08,0.46,0.23l9.92,9.88
		C18.42,11.67,18.48,11.84,18.48,12.04z"/>
</g>
</svg>
