<svg xmlns="http://www.w3.org/2000/svg" width="40" height="40" viewBox="0 0 40 40">
  <defs>
    <linearGradient id="icon-04-a" x1="0%" x2="96.071%" y1="100%" y2="3.929%">
      <stop offset="0%" stop-color="#fc0"/>
      <stop offset="100%" stop-color="#FCE16C"/>
    </linearGradient>
  </defs>
  <g fill="none">
    <path fill="url(#icon-04-a)" d="M17.1192399,-5.88968724e-16 L22.8807601,5.88968724e-16 C28.2228497,-3.92357214e-16 30.6150941,0.645743382 32.8824049,1.85831446 C35.1497157,3.07088554 36.9291145,4.85028432 38.1416855,7.11759511 C39.3542566,9.38490589 40,11.7771503 40,17.1192399 L40,22.8807601 C40,28.2228497 39.3542566,30.6150941 38.1416855,32.8824049 C36.9291145,35.1497157 35.1497157,36.9291145 32.8824049,38.1416855 C30.6150941,39.3542566 28.2228497,40 22.8807601,40 L17.1192399,40 C11.7771503,40 9.38490589,39.3542566 7.11759511,38.1416855 C4.85028432,36.9291145 3.07088554,35.1497157 1.85831446,32.8824049 C0.645743382,30.6150941 1.2100986e-15,28.2228497 -1.81648304e-15,22.8807601 L3.92645816e-16,17.1192399 C-2.61571476e-16,11.7771503 0.645743382,9.38490589 1.85831446,7.11759511 C3.07088554,4.85028432 4.85028432,3.07088554 7.11759511,1.85831446 C9.38490589,0.645743382 11.7771503,3.92357214e-16 17.1192399,-5.88968724e-16 Z"/>
    <path fill="#FFF" d="M13.5467354,21.8750046 L15.532231,23.7539178 C15.9539448,24.1530563 15.9631763,24.821546 15.5525824,25.23214 L15.086809,25.6979134 C14.6841038,26.1006606 14.0311398,26.1006606 13.6283926,25.6979134 L9.40273666,21.4722574 C8.86575445,20.9352752 8.86575445,20.0646985 9.40273666,19.5277163 L13.6283926,15.3021023 C14.0310978,14.8993552 14.6840618,14.8993552 15.086809,15.3021023 L15.5525824,15.7678757 C15.9631763,16.1784697 15.9539448,16.8469595 15.532231,17.2460979 L13.5467354,19.1250111 L26.4532331,19.1250111 L24.4677375,17.246056 C24.0460237,16.8469175 24.0367922,16.1784277 24.4473862,15.7678338 L24.9131596,15.3020604 C25.3158648,14.8993132 25.9688288,14.8993132 26.3715759,15.3020604 L30.5972319,19.5277163 C31.1342141,20.0646985 31.1342141,20.9352752 30.5972319,21.4722574 L26.3715759,25.6979134 C25.9688707,26.1006606 25.3159067,26.1006606 24.9131596,25.6979134 L24.4473862,25.23214 C24.0367922,24.821546 24.0460237,24.1530563 24.4677375,23.7539178 L26.4532331,21.8750046 L13.5467354,21.8750046 Z"/>
  </g>
</svg>
