<svg xmlns="http://www.w3.org/2000/svg" width="40" height="40" viewBox="0 0 40 40">
  <defs>
    <linearGradient id="icon-05-a" x1="0%" x2="100%" y1="100%" y2="0%">
      <stop offset="0%" stop-color="#fc0"/>
      <stop offset="96.071%" stop-color="#FCE16C"/>
    </linearGradient>
  </defs>
  <g fill="none">
    <path fill="url(#icon-05-a)" d="M17.1192399,-5.88968724e-16 L22.8807601,5.88968724e-16 C28.2228497,-3.92357214e-16 30.6150941,0.645743382 32.8824049,1.85831446 C35.1497157,3.07088554 36.9291145,4.85028432 38.1416855,7.11759511 C39.3542566,9.38490589 40,11.7771503 40,17.1192399 L40,22.8807601 C40,28.2228497 39.3542566,30.6150941 38.1416855,32.8824049 C36.9291145,35.1497157 35.1497157,36.9291145 32.8824049,38.1416855 C30.6150941,39.3542566 28.2228497,40 22.8807601,40 L17.1192399,40 C11.7771503,40 9.38490589,39.3542566 7.11759511,38.1416855 C4.85028432,36.9291145 3.07088554,35.1497157 1.85831446,32.8824049 C0.645743382,30.6150941 1.2100986e-15,28.2228497 -1.81648304e-15,22.8807601 L3.92645816e-16,17.1192399 C-2.61571476e-16,11.7771503 0.645743382,9.38490589 1.85831446,7.11759511 C3.07088554,4.85028432 4.85028432,3.07088554 7.11759511,1.85831446 C9.38490589,0.645743382 11.7771503,3.92357214e-16 17.1192399,-5.88968724e-16 Z"/>
    <path fill="#FFF" d="M29.7280093,27.2912779 C30.0913095,27.6584064 30.0913095,28.2521057 29.724118,28.6192724 L28.6185376,29.724625 C28.2552374,30.0917917 27.6614362,30.0917917 27.2942447,29.724625 L23.3994202,25.8304686 C23.223626,25.6547046 23.1259626,25.416462 23.1259626,25.1664713 L23.1259626,24.5298228 C21.7469629,25.6078266 20.0124454,26.2484039 18.1255959,26.2484039 C13.6369702,26.2484039 10,22.6120576 10,18.124202 C10,13.6363463 13.6369702,10 18.1255959,10 C22.6142216,10 26.2511918,13.6363463 26.2511918,18.124202 C26.2511918,20.0107278 25.6105045,21.7449477 24.5323157,23.1237109 L25.1690736,23.1237109 C25.4191072,23.1237109 25.6573906,23.2213575 25.8331848,23.3971215 L29.7280093,27.2912779 Z M18.1255959,23.1237109 C20.8914161,23.1237109 23.1259626,20.8856571 23.1259626,18.124202 C23.1259626,15.3588562 20.8875248,13.1246931 18.1255959,13.1246931 C15.3597757,13.1246931 13.1252292,15.3627468 13.1252292,18.124202 C13.1252292,20.8895477 15.363667,23.1237109 18.1255959,23.1237109 Z"/>
  </g>
</svg>
