<svg xmlns="http://www.w3.org/2000/svg" width="17" height="18" viewBox="0 0 17 18">
  <g fill="#969696" fill-rule="evenodd">
    <path d="M14.1666667,6.92307692 L14.1666667,4.84615385 C14.1666667,0.671538462 11.3120833,0 9.91666667,0 L7.08333333,0 C5.68791667,0 2.83333333,0.671538462 2.83333333,4.84615385 L2.83333333,6.92307692 L2.125,6.92307692 C0.949166667,6.92307692 0,7.85076923 0,9 L0,15.9230769 C0,17.0723077 0.949166667,18 2.125,18 L14.875,18 C16.0508333,18 17,17.0723077 17,15.9230769 L17,9 C17,7.85076923 16.0508333,6.92307692 14.875,6.92307692 L14.1666667,6.92307692 Z M4.25,4.15384615 C4.25,1.86230769 6.39625,1.38461538 7.08333333,1.38461538 L9.91666667,1.38461538 C10.60375,1.38461538 12.75,1.86230769 12.75,4.15384615 L12.75,6.92307692 L4.25,6.92307692 L4.25,4.15384615 L4.25,4.15384615 Z M15.5833333,15.9230769 C15.5833333,16.3038462 15.2645833,16.6153846 14.875,16.6153846 L2.125,16.6153846 C1.73541667,16.6153846 1.41666667,16.3038462 1.41666667,15.9230769 L1.41666667,9 C1.41666667,8.61923077 1.73541667,8.30769231 2.125,8.30769231 L14.875,8.30769231 C15.2645833,8.30769231 15.5833333,8.61923077 15.5833333,9 L15.5833333,15.9230769 L15.5833333,15.9230769 Z"/>
    <g transform="translate(7.1 10)">
      <circle cx="1.4" cy="1.4" r="1.4"/>
      <rect width="1.4" height="2.5" x=".8" y="2.5"/>
    </g>
  </g>
</svg>
