<svg xmlns="http://www.w3.org/2000/svg" width="26" height="26" viewBox="0 0 26 26">
  <path fill="#969696" fill-rule="evenodd" d="M13,0 C5.82,0 0,5.82 0,13 C0,20.18 5.82,26 13,26 C20.18,26 26,20.18 26,13 C26,5.82 20.18,0 13,0 L13,0 Z M6,20.79 C6,19.099 7.814,17.545 10.514,16.925 C10.514,16.925 11.812,16.906 11.812,16.11 C11.812,15.266 10.803,15.093 10.803,15.093 C9.467,14.293 8.669,12.89 8.669,11.341 C8.67,8.947 10.612,7 13,7 C15.388,7 17.33,8.947 17.33,11.34 C17.33,12.889 16.669,14.309 15.333,15.11 C15.333,15.11 14.739,15.352 14.796,16.094 C14.843,16.703 15.485,16.925 15.485,16.925 C18.186,17.545 20,19.099 20,20.79 C20,21.115 19.909,21.399 19.771,21.66 C17.904,23.122 15.558,24 13,24 C10.442,24 8.096,23.122 6.229,21.66 C6.091,21.399 6,21.115 6,20.79 L6,20.79 Z M21.807,19.575 C21.317,17.898 19.851,16.437 17.742,15.553 C18.758,14.408 19.331,12.927 19.331,11.34 C19.33,7.844 16.49,5 13,5 C9.51,5 6.67,7.844 6.67,11.34 C6.67,12.927 7.243,14.408 8.259,15.553 C6.149,16.438 4.683,17.899 4.194,19.575 C2.822,17.74 2,15.47 2,13 C2,6.92 6.92,2 13,2 C19.08,2 24,6.92 24,13 C24,15.47 23.178,17.74 21.807,19.575 L21.807,19.575 Z"/>
</svg>
