<svg xmlns="http://www.w3.org/2000/svg" width="112" height="56"><defs><clipPath id="a"><path d="M0 707.324V0h1417.32v707.324H0z"/></clipPath></defs><g clip-path="url(#a)" transform="matrix(.07902 0 0 -.07902 0 55.894)"><path d="M22.09 400.234v-84.296h1373.15v84.296H22.09" fill="#fff"/><path d="M0 707.324V0h1233.43c101.39 0 183.89 81.934 183.89 182.637v524.687H0" fill="#fff"/><path d="M22.09 685.242V364.727h1373.15v320.515H22.09" fill="#003468"/><path d="M22.09 22.117h1211.34c90.01 0 161.81 73.906 161.81 160.5v160H22.09v-320.5" fill="#ff7500"/><path d="M147.305 90.04h-2.325c-27.871 0-51.878 19.362-51.878 51.632 0 19.859 29.945 19.859 29.945 0 0-13.938 9.031-21.945 21.933-21.945h2.325c12.906 0 22.715 6.707 22.715 19.617 0 32.265-75.11 35.351-75.11 82.59v5.418c0 27.617 27.617 44.14 50.07 44.14h2.325c26.582 0 50.336-16.523 50.336-41.289 0-19.109-29.688-19.629-29.688-.777 0 6.707-8.258 12.379-20.648 12.379h-2.325c-11.351 0-20.136-6.192-20.136-16.004v-3.867c0-20.379 75.113-29.422 75.113-82.59 0-29.434-22.965-49.305-52.652-49.305m129.808.001h-2.312c-28.395 0-51.617 21.94-51.617 50.597v80.523c0 28.652 23.222 50.332 51.617 50.332h2.312c26.071 0 47.754-17.812 51.11-43.105.261-.782.261-1.543.261-2.586 0-9.289-7.742-14.453-15.226-14.453-6.703 0-13.164 4.129-14.449 12.91-1.559 10.586-10.59 17.547-21.696 17.547h-2.312c-12.137 0-21.942-8.778-21.942-20.645v-80.523c0-12.129 10.063-20.91 21.942-20.91h2.312c11.106 0 20.137 6.972 21.696 17.558 1.285 8.77 7.992 12.899 14.449 12.899 7.75 0 15.226-5.164 15.226-14.454v-2.832c-3.875-24.785-25.3-42.859-51.371-42.859m148.41 130.867c0 12.121-9.546 20.899-21.679 20.899h-2.324c-12.129 0-21.684-9.024-21.684-20.899v-80.019c0-12.125 9.812-21.16 21.684-21.16h2.324c12.133 0 21.679 9.035 21.679 20.91v80.269zM403.844 90.039h-2.324c-28.391 0-51.618 22.207-51.618 50.598v80.269c0 28.645 23.227 50.586 51.618 50.586h2.324c28.644 0 51.609-21.941 51.609-50.586v-80.019c0-28.641-22.965-50.848-51.609-50.848m136.269.001h-2.316c-28.387 0-51.621 23.23-51.621 51.632v114.84c0 10.082 7.484 14.98 14.969 14.98 7.484 0 14.968-4.898 14.968-14.98v-114.84c0-11.875 9.809-21.945 21.684-21.945h2.316c12.137 0 21.942 9.804 21.942 21.945v114.84c0 10.082 7.476 14.98 14.972 14.98 7.489 0 14.965-4.898 14.965-14.98v-114.84c0-28.402-23.219-51.633-51.879-51.633m157.699 150.223h-20.644v-135.25c0-10.063-7.496-14.973-14.984-14.973-7.477 0-14.961 4.91-14.961 14.973v135.25H626.57c-9.8 0-14.965 7.48-14.965 14.961 0 7.238 5.165 14.726 14.965 14.726h71.242c10.071 0 14.965-7.488 14.965-14.726 0-7.481-4.894-14.961-14.965-14.961M837.188 91.594h-67.11c-9.551 0-15.234 9.031-15.234 17.808 0 3.36.527 6.457 2.324 9.289l58.594 94.461c3.086 5.176 3.086 8.008 3.086 11.875v2.071c0 7.746-6.7 14.707-15.469 14.707h-.781c-8.516 0-14.961-6.707-14.961-14.707v-2.84c0-9.805-7.5-14.699-14.981-14.699-7.48 0-14.968 4.894-14.968 14.699v3.879c0 25.027 20.378 43.355 44.91 43.355h.781c24.258 0 45.422-18.074 45.422-43.355l-.266-2.844c0-9.816-3.613-17.813-9.043-26.848l-47.226-77.168h44.922c10.058 0 14.96-7.488 14.96-14.715 0-7.48-4.902-14.968-14.96-14.968m117.929 35.359h-5.676v-21.941c0-10.063-7.488-14.973-14.968-14.973-7.481 0-14.961 4.91-14.961 14.973v21.941h-40.535c-10.325 0-16.77 5.676-16.77 15.75 0 2.57.52 5.93 1.543 8.254l48.262 111.504c2.843 6.445 8.008 9.031 13.164 9.031 7.746 0 15.488-5.937 15.488-14.453 0-2.07-.254-4.117-1.289-6.453l-42.598-93.945h22.735v14.968c0 9.817 7.48 14.961 14.961 14.961 7.48 0 14.968-4.898 14.968-14.961v-14.968h5.676c10.059 0 14.973-7.239 14.973-14.715 0-7.485-4.914-14.973-14.973-14.973" fill="#003468"/><path d="M115.359 431.621c-7.484 0-14.968 4.891-14.968 14.981V598.09c0 10.074 7.484 14.98 14.968 14.98 7.489 0 14.969-4.906 14.969-14.98V446.602c0-10.09-7.48-14.981-14.969-14.981m175.137 0c-7.484 0-14.965 4.891-14.965 14.981v94.449l-21.941-50.574c-3.613-8.524-10.324-10.079-15.231-10.079-4.902 0-11.613 1.555-15.222 10.079l-21.942 50.574v-94.449c0-10.09-7.484-14.981-14.968-14.981-7.481 0-14.965 4.891-14.965 14.981V598.09c0 8.008 6.957 14.98 14.965 14.98h3.867c9.551 0 13.168-6.195 16.269-12.914l31.996-72.265 32.012 72.265c2.832 6.719 6.707 12.914 16.254 12.914h3.871c8.004 0 14.977-6.972 14.977-14.98V446.602c0-10.09-7.493-14.981-14.977-14.981m174.809 0c-7.493 0-14.973 4.891-14.973 14.981v94.449l-21.937-50.574c-3.614-8.524-10.325-10.079-15.231-10.079-4.902 0-11.609 1.555-15.23 10.079l-21.938 50.574v-94.449c0-10.09-7.48-14.981-14.965-14.981-7.48 0-14.969 4.891-14.969 14.981V598.09c0 8.008 6.973 14.98 14.969 14.98h3.867c9.551 0 13.168-6.195 16.262-12.914l32.004-72.265 32.012 72.265c2.836 6.719 6.703 12.914 16.254 12.914h3.875c8 0 14.968-6.972 14.968-14.98V446.602c0-10.09-7.48-14.981-14.968-14.981m127.64 130.859c0 12.133-9.547 20.903-21.683 20.903h-2.317c-12.136 0-21.683-9.031-21.683-20.903v-80.011c0-12.137 9.808-21.168 21.683-21.168h2.317c12.136 0 21.683 9.031 21.683 20.918v80.261zm-21.683-130.859h-2.317c-28.394 0-51.621 22.195-51.621 50.598v80.261c0 28.653 23.227 50.59 51.621 50.59h2.317c28.66 0 51.621-21.937 51.621-50.59v-80.011c0-28.653-22.961-50.848-51.621-50.848m163.054 55.234c0 12.903-10.586 23.227-21.945 23.227h-22.199v-47.23h22.199c12.121 0 21.945 9.804 21.945 21.933v2.07zm-21.945 94.985h-22.199v-42.074h22.199c11.106 0 19.875 9.035 19.875 22.203 0 12.644-8.262 19.871-19.875 19.871zm-.258-148.676h-36.91c-7.996 0-14.969 6.973-14.969 14.973v148.418c0 7.996 6.973 14.965 14.969 14.965h36.91c28.903 0 50.075-21.422 50.075-49.551 0-17.559-7.227-26.598-16.512-36.399 10.308-10.074 18.562-21.937 18.562-38.715v-2.07c0-28.644-23.476-51.621-52.125-51.621m97.684-1.543c-7.492 0-14.973 4.891-14.973 14.981V598.09c0 10.074 7.481 14.98 14.973 14.98 7.469 0 14.969-4.906 14.969-14.98V446.602c0-10.09-7.5-14.981-14.969-14.981m135.828 1.309h-65.813c-7.996 0-14.968 6.972-14.968 14.968v149.957c0 10.075 7.492 14.981 14.968 14.981 7.493 0 14.973-4.906 14.973-14.981V462.617h50.84c10.078 0 14.98-7.48 14.98-14.972 0-7.223-4.902-14.715-14.98-14.715m44.941-1.309c-7.492 0-14.98 4.891-14.98 14.981V598.09c0 10.074 7.488 14.98 14.98 14.98 7.481 0 14.964-4.906 14.964-14.98V446.602c0-10.09-7.483-14.981-14.964-14.981m144.634 1.387h-75.63c-8.01 0-14.97 6.972-14.97 14.969v148.414c0 8 6.96 14.964 14.97 14.964h75.63c10.05 0 14.96-7.476 14.96-14.714 0-7.481-4.91-14.965-14.96-14.965h-60.67v-42.071h40.27c10.06 0 14.98-7.488 14.98-14.968 0-7.235-4.92-14.715-14.98-14.715h-40.27v-47.238h60.67c10.05 0 14.96-7.469 14.96-14.961 0-7.235-4.91-14.715-14.96-14.715m134.82-1.387h-2.83c-9.55 0-13.43 6.191-16.26 12.899l-41.55 96.531v-94.449c0-10.09-7.5-14.981-14.99-14.981-7.48 0-14.96 4.891-14.96 14.981V598.09c0 8.008 6.98 14.98 14.96 14.98h3.36c9.55 0 13.18-6.195 16.26-12.914l41.05-92.922v91.121c0 9.809 7.49 14.715 14.96 14.715 7.49 0 14.97-4.906 14.97-14.715V446.602c0-8.016-6.96-14.981-14.97-14.981" fill="#fff"/></g></svg>