<svg xmlns="http://www.w3.org/2000/svg" width="24" height="24" fill="none"><path fill="#1D4B00" d="M12.7 3.9c-.1 0-.2-.1-.4-.1l-3-1c-.8-.3-1.2-.4-1.7-.4-.3 0-.7.1-1 .2-.4.2-.7.5-1.3 1.1L3.7 5.3c-.6.6-.9.9-1.1 1.3-.1.3-.2.7-.2 1 0 .5.1.9.4 1.7l1 3c.1.3.1.4.2.5 0 .1.1.2.2.3 0 .1.1.2.3.4l6.7 6.7c1 1 1.5 1.5 2 1.6.5.2 1.1.2 1.6 0 .5-.1 1-.6 2-1.6l3.4-3.4c1-1 1.5-1.5 1.6-2 .2-.5.2-1.1 0-1.6-.1-.3-.3-.6-.6-1-.3.4-.7.8-1.1 1.1h.1c.2.3.2.4.2.4.1.2.1.4 0 .6 0 0 0 .1-.2.4-.3.2-.6.6-1.1 1.1l-3.3 3.3c-.5.5-.9.8-1.1 1.1-.3.2-.4.2-.4.2-.2.1-.4.1-.6 0 0 0-.1 0-.4-.2-.2-.3-.6-.6-1.1-1.1l-6.6-6.6-.2-.2c0-.1-.1-.1-.1-.1v-.1c0-.1-.1-.1-.1-.3l-1-2.9c-.3-1-.3-1.1-.3-1.2 0-.2 0-.3.1-.5 0-.1.1-.2.8-.9l1.5-1.5c.7-.7.8-.8.9-.8.2-.1.3-.1.5-.1.1 0 .2 0 1.2.3l2.7.9c.3-.5.6-.9 1.1-1.2Zm4.6.6c0-.4-.4-.7-.8-.7s-.7.3-.7.7v3.3h-3.3c-.4 0-.7.3-.7.7 0 .4.3.8.7.8h3.3v3.2c0 .4.3.8.7.8.4 0 .8-.4.8-.8V9.3h3.2c.4 0 .8-.4.8-.8s-.4-.7-.8-.7h-3.2V4.5ZM7.5 6.3c-.7 0-1.2.5-1.2 1.2s.5 1.3 1.2 1.3 1.3-.6 1.3-1.3c0-.7-.6-1.2-1.3-1.2Z"/></svg>