<svg xmlns="http://www.w3.org/2000/svg" width="787" height="132" fill="none"><path fill="#1D4B00" d="M85.475 131.213c-17.56 0-26.15-12.255-27.894-14.787-5.183 5.101-13.007 14.787-27.1 14.787-16.275 0-29.995-12.3-29.995-32.242V32.472C.486 12.485 14.228.231 30.48.231c16.253 0 29.994 13.015 29.994 31.938a29.787 29.787 0 0 1 10.001-1.713c16.744 0 29.994 13.727 29.994 30.226 0 4.625-.874 8.739-2.785 12.68 10.618 4.757 17.784 15.462 17.784 27.625 0 16.667-13.457 30.226-29.993 30.226Zm-20.642-22.094c4.313 7.552 11.573 12.018 20.642 12.018 11.024 0 19.997-9.042 19.997-20.15 0-8.788-5.607-16.435-13.674-19.126l-26.966 27.262v-.004ZM30.484 10.306c-9.952 0-19.998 6.854-19.998 22.166v66.5c0 15.311 10.042 22.165 19.998 22.165 7.9 0 12.268-4.018 19.312-11.117l3.12-3.144c-1.61-4.833-2.44-10.197-2.44-15.969v-58.44c0-15.311-10.04-22.166-19.997-22.166l.005.005Zm29.994 32.916v47.69c0 2.7.225 5.269.653 7.688l21.733-21.9c6.314-6.36 7.608-11.003 7.608-16.014 0-10.705-8.537-20.15-19.998-20.15-3.565 0-6.976.924-9.996 2.691v-.005ZM161.462 30.456h12.57v44.011c9.74-4.213 16.446-11.584 20.742-22.954h12.885c-3.561 10.845-8.59 19.267-15.292 25.373l20.425 27.272h-14.873l-15.292-20.53a55.432 55.432 0 0 1-8.59 3.157v17.373h-12.57V30.456h-.005Zm55.725 58.857V30.456h11.943v58.227c0 4.947 1.361 6.424 4.084 6.424 1.573 0 3.037-.317 4.921-1.16v10.216c-2.199.842-4.714 1.472-7.648 1.472-8.068 0-13.305-4.213-13.305-16.318l.005-.004Zm24.982-11.475c0-16.74 10.474-27.798 27.024-27.798 18.433 0 27.97 13.9 22.94 31.168h-37.29c1.05 8.739 5.868 13.899 14.246 13.899 5.553 0 10.79-2.632 13.724-6.003l9.113 6.528c-5.237 5.686-12.782 10.003-23.044 10.003-16.342 0-26.713-11.054-26.713-27.797Zm38.652-5.16c.734-7.58-3.561-12.53-11.836-12.53-8.274 0-12.673 4.42-13.931 12.53h25.767Zm27.673-44.115c4.295 0 7.648 3.37 7.648 7.687 0 4.318-3.353 7.688-7.648 7.688s-7.649-3.37-7.649-7.688c0-4.317 3.354-7.687 7.649-7.687Zm-6.076 22.954h11.944v52.646h-11.944V51.517Zm23.536 0h11.943v9.686c3.457-6.95 9.848-11.163 17.807-11.163 16.866 0 16.865 16.74 16.865 24.64v29.483h-11.943V74.997c0-6.002 0-14.528-9.217-14.528-7.959 0-13.512 7.158-13.512 17.899v25.795h-11.943V51.517Zm105.828 43.59c.839 0 1.884-.104 2.826-.526v9.899c-1.884.843-3.56 1.16-5.656 1.16-6.287 0-9.848-5.056-9.848-12.11v-1.685c-3.457 8.739-10.578 13.795-20.322 13.795-11.105 0-18.019-6.528-18.019-15.689 0-10.632 9.217-17.056 23.986-17.056 4.084 0 8.275.526 11.944 1.368 0-7.791-3.561-13.794-11.525-13.794-5.656 0-9.847 2.736-10.474 8.422h-12.047c.419-11.475 9.532-18.846 22.729-18.846 16.342 0 23.256 10.003 23.256 24.218v17.374c0 2.528 1.361 3.474 3.141 3.474l.009-.004Zm-30.589.947c7.649 0 13.931-4.947 15.924-12.635-3.457-1.16-7.649-1.79-11.417-1.79-8.59 0-12.781 3.158-12.781 8 0 4.214 3.141 6.425 8.274 6.425Zm40.694-44.537h11.943v9.686c3.457-6.95 9.848-11.163 17.808-11.163 16.865 0 16.865 16.74 16.865 24.64v29.483h-11.944V74.997c0-6.002 0-14.528-9.217-14.528-7.959 0-13.512 7.158-13.512 17.899v25.795h-11.943V51.517Zm54.165 43.064 27.551-33.061H497.94V51.517h41.167v7.688l-29.331 35.376h30.377v9.582h-44.101v-9.582Zm48.391-16.739c0-16.739 10.475-27.797 27.024-27.797 18.434 0 27.971 13.899 22.941 31.168h-37.291c1.05 8.739 5.868 13.898 14.246 13.898 5.553 0 10.79-2.632 13.724-6.002l9.113 6.528c-5.237 5.685-12.781 10.003-23.044 10.003-16.342 0-26.713-11.054-26.713-27.798Zm38.652-5.16c.735-7.579-3.56-12.53-11.835-12.53s-12.674 4.421-13.931 12.53h25.766Zm27.673-44.115c4.295 0 7.648 3.37 7.648 7.688 0 4.317-3.353 7.688-7.648 7.688s-7.648-3.37-7.648-7.688c0-4.317 3.353-7.688 7.648-7.688Zm-6.075 22.955h11.943v52.645h-11.943V51.522Zm19.578 56.963h12.466c.942 4.421 5.657 7.687 13.305 7.687 7.017 0 11.416-2.845 11.416-7.266 0-9.794-27.97-4-27.97-14.741 0-3.58 3.141-5.369 7.54-6.737-9.951-1.58-16.342-8.213-16.342-17.794 0-11.584 9.532-19.48 23.778-19.48 7.333 0 13.305 2.106 17.492 5.58 1.046-2.948.735-7.37 0-10.74h9.74c1.045 6.106-.942 12.847-5.237 16.53 1.153 2.315 1.78 5.056 1.78 7.897 0 20.743-25.559 17.898-25.559 21.899 0 5.055 27.235-.317 27.235 17.69 0 10.528-9.847 17.691-23.778 17.691-14.982 0-23.883-8.422-25.875-18.216h.009Zm24.198-29.379c6.81 0 11.313-3.683 11.313-9.264 0-5.581-4.399-9.264-11.313-9.264-6.914 0-11.313 3.683-11.313 9.264 0 5.581 4.503 9.264 11.313 9.264Zm31.342-1.264c0-16.739 10.474-27.797 27.023-27.797 18.434 0 27.971 13.899 22.941 31.168h-37.291c1.05 8.739 5.868 13.898 14.247 13.898 5.552 0 10.789-2.632 13.724-6.002l9.113 6.528c-5.237 5.685-12.782 10.003-23.045 10.003-16.342 0-26.712-11.054-26.712-27.798Zm38.651-5.16c.735-7.579-3.56-12.53-11.835-12.53s-12.674 4.421-13.931 12.53h25.766Zm21.422-21.165h11.944v9.686c3.456-6.95 9.847-11.163 17.807-11.163 16.865 0 16.865 16.74 16.865 24.64v29.483h-11.944V74.997c0-6.002 0-14.528-9.216-14.528-7.96 0-13.512 7.158-13.512 17.899v25.795h-11.944V51.517Z"/></svg>