<svg xmlns="http://www.w3.org/2000/svg" width="16" height="16" fill="none"><g clip-path="url(#a)"><path fill="#4D4D4D" fill-rule="evenodd" d="M5.8 2.5h4.4c.86 0 1.42 0 1.85.04.41.03.56.09.63.12.28.15.51.38.66.66.03.07.09.22.12.63.04.43.04.99.04 1.85v6.58l-.03-.03c-.11-.11-.28-.29-.5-.43-.27-.18-.57-.31-.9-.37-.25-.05-.5-.05-.65-.05H5.8c-.86 0-1.42 0-1.85-.04-.41-.03-.56-.09-.63-.12-.28-.15-.51-.38-.66-.66-.03-.07-.09-.22-.12-.63-.04-.43-.04-.99-.04-1.85V5.8c0-.86 0-1.42.04-1.85.03-.41.09-.56.12-.63.15-.28.38-.51.66-.66.07-.03.22-.09.63-.12.43-.04.99-.04 1.85-.04ZM1 5.8c0-1.68 0-2.52.33-3.16.28-.57.74-1.03 1.31-1.31C3.28 1 4.12 1 5.8 1h4.4c1.68 0 2.52 0 3.16.33.57.28 1.03.74 1.31 1.31.33.64.33 1.48.33 3.16v6.58c0 1.01 0 1.51-.17 1.76-.22.34-.63.51-1.03.43-.29-.06-.65-.42-1.36-1.13-.14-.14-.22-.22-.3-.27a.952.952 0 0 0-.36-.15c-.1-.02-.2-.02-.4-.02H5.8c-1.68 0-2.52 0-3.16-.33-.57-.28-1.03-.74-1.31-1.31C1 10.72 1 9.88 1 8.2V5.8Zm3.25-.3c0-.41.34-.75.75-.75h6c.41 0 .75.34.75.75s-.34.75-.75.75H5c-.41 0-.75-.34-.75-.75Zm0 3c0-.41.34-.75.75-.75h3c.41 0 .75.34.75.75s-.34.75-.75.75H5c-.41 0-.75-.34-.75-.75Z" clip-rule="evenodd"/></g><defs><clipPath id="a"><path fill="#4D4D4D" d="M0 0h16v16H0z"/></clipPath></defs></svg>